<?xml version="1.0" encoding="iso-8859-1"?>
<!-- Generator: Adobe Illustrator 19.0.0, SVG Export Plug-In . SVG Version: 6.00 Build 0)  -->
<svg version="1.1" id="Capa_1" xmlns="http://www.w3.org/2000/svg" xmlns:xlink="http://www.w3.org/1999/xlink" x="0px" y="0px"
	 viewBox="0 0 512.001 512.001" style="enable-background:new 0 0 512.001 512.001;" xml:space="preserve">
<g>
	<polygon style="fill:#ED6B00;" points="216.592,325.216 202.844,376.923 168.94,504.396 102.025,504.396 135.929,376.923 
		149.677,325.216 	"/>
	<polygon style="fill:#ED6B00;" points="409.976,504.396 343.061,504.396 309.157,376.923 295.409,325.216 362.324,325.216 
		376.072,376.923 	"/>
</g>
<g>
	<polygon style="fill:#D65E05;" points="149.677,325.216 216.592,325.216 202.844,376.923 135.929,376.923 	"/>
	<polygon style="fill:#D65E05;" points="376.072,376.923 309.157,376.923 295.409,325.216 362.324,325.216 	"/>
</g>
<rect x="218.995" y="7.605" style="fill:#ED6B00;" width="74.012" height="64.147"/>
<rect x="52.214" y="71.751" style="fill:#38ABF9;" width="407.572" height="279.826"/>
<g>
	<polygon style="fill:#3B4C5B;" points="267.66,270.468 356.373,191.894 459.787,276.044 459.787,351.577 242.82,351.577 	"/>
	<polygon style="fill:#3B4C5B;" points="348.769,351.577 52.214,351.577 52.214,308.488 173.878,176.686 	"/>
</g>
<polygon style="fill:#2A3944;" points="173.878,176.686 129.45,351.577 52.214,351.577 52.214,308.488 "/>
<polygon style="fill:#EAEAEA;" points="257.268,260.076 207.335,254.246 195.169,303.925 156.642,253.232 153.753,255.919 
	113.117,293.716 106.03,250.191 173.878,176.686 "/>
<polygon style="fill:#CCCCCC;" points="173.878,176.686 153.753,255.919 113.117,293.716 106.03,250.191 "/>
<polygon style="fill:#EAEAEA;" points="287.797,252.632 327.985,245.121 353.838,270.975 378.678,246.135 419.232,274.523 
	419.232,243.044 356.373,191.894 "/>
<circle style="fill:#FEC755;" cx="372.595" cy="158.943" r="45.624"/>
<path d="M205.599,366.533c-4.056-1.081-8.223,1.335-9.302,5.395l-33.203,124.864h-51.179l7.552-28.402
	c1.079-4.058-1.336-8.223-5.395-9.302c-4.055-1.078-8.223,1.335-9.302,5.395l-10.094,37.96c-0.607,2.282-0.119,4.716,1.32,6.589
	c1.44,1.873,3.667,2.97,6.028,2.97h66.915c3.447,0,6.463-2.319,7.348-5.65l34.704-130.514
	C212.073,371.777,209.658,367.612,205.599,366.533z"/>
<path d="M116.425,450.243c0.655,0.174,1.312,0.258,1.959,0.258c3.363,0,6.439-2.248,7.343-5.652l18.351-69.013
	c1.079-4.059-1.336-8.223-5.395-9.302c-4.055-1.081-8.223,1.335-9.302,5.395l-18.351,69.013
	C109.952,444.999,112.367,449.164,116.425,450.243z"/>
<path d="M382.62,371.928c-1.079-4.058-5.246-6.476-9.302-5.395c-4.058,1.079-6.474,5.244-5.395,9.302l32.163,120.957h-51.179
	l-33.202-124.864c-1.079-4.058-5.243-6.476-9.302-5.395c-4.058,1.079-6.474,5.244-5.395,9.302l34.704,130.514
	c0.886,3.332,3.901,5.65,7.348,5.65h66.915c2.361,0,4.589-1.097,6.028-2.97c1.439-1.872,1.927-4.307,1.32-6.589L382.62,371.928z"/>
<path d="M459.787,64.147h-57.788c-4.199,0-7.604,3.405-7.604,7.604s3.405,7.604,7.604,7.604h50.184v264.618H59.818V79.355H376.65
	c4.199,0,7.604-3.405,7.604-7.604s-3.405-7.604-7.604-7.604H52.214c-4.199,0-7.604,3.405-7.604,7.604v279.826
	c0,4.199,3.405,7.604,7.604,7.604h407.572c4.199,0,7.604-3.405,7.604-7.604V71.751C467.391,67.552,463.986,64.147,459.787,64.147z"
	/>
<path d="M218.995,56.036c4.199,0,7.604-3.405,7.604-7.604V15.208h58.804v33.224c0,4.199,3.405,7.604,7.604,7.604
	c4.199,0,7.604-3.405,7.604-7.604V7.604c0-4.199-3.405-7.604-7.604-7.604h-74.012c-4.199,0-7.604,3.405-7.604,7.604v40.828
	C211.391,52.632,214.795,56.036,218.995,56.036z"/>
<path d="M173.726,169.083c-2.069,0.042-4.032,0.925-5.435,2.445L66.677,281.609c-2.848,3.085-2.656,7.897,0.43,10.745
	c3.085,2.849,7.897,2.655,10.745-0.43l23.181-25.112l4.58,28.126c0.45,2.768,2.388,5.063,5.04,5.972
	c2.652,0.909,5.59,0.285,7.644-1.626l37.374-34.762l33.444,44.006c1.455,1.915,3.707,3.003,6.054,3.003
	c0.513,0,1.032-0.053,1.547-0.159c2.87-0.596,5.141-2.789,5.839-5.636l10.568-43.157l40.637,4.745l66.566,66.566
	c1.484,1.484,3.431,2.227,5.377,2.227s3.892-0.742,5.377-2.227c2.97-2.97,2.97-7.784,0-10.753L179.252,171.309
	C177.791,169.845,175.81,169.038,173.726,169.083z M208.217,246.694c-3.805-0.449-7.355,2.018-8.267,5.744l-8.373,34.194l-28.88-38
	c-1.3-1.71-3.262-2.79-5.402-2.975c-2.134-0.186-4.257,0.545-5.831,2.007l-33.124,30.809l-4.209-25.851l59.967-64.964l62.328,62.328
	L208.217,246.694z"/>
<path d="M359.215,276.351l20.329-20.329l35.328,24.73c1.303,0.911,2.829,1.375,4.361,1.375c1.201,0,2.407-0.284,3.511-0.86
	c2.514-1.31,4.093-3.909,4.093-6.744v-15.489l8.868,7.217c1.41,1.148,3.107,1.706,4.795,1.706c2.209,0,4.399-0.957,5.903-2.804
	c2.65-3.258,2.159-8.047-1.098-10.697l-84.131-68.459c-2.887-2.349-7.053-2.263-9.842,0.206l-73.051,64.702
	c-3.144,2.784-3.435,7.59-0.651,10.734c2.784,3.144,7.59,3.435,10.734,0.651l2.899-2.567l34.179-6.388l23.02,23.02
	C351.43,279.321,356.246,279.321,359.215,276.351z M326.588,237.646l-13.185,2.465l43.179-38.244l55.047,44.792v13.259
	l-28.59-20.013c-3.021-2.115-7.127-1.757-9.737,0.853l-19.463,19.463l-20.477-20.477
	C331.588,237.972,329.055,237.188,326.588,237.646z"/>
<path d="M345.177,113.321c-25.157,15.119-33.323,47.885-18.204,73.041c2.164,3.6,6.836,4.766,10.435,2.601
	c3.599-2.164,4.764-6.834,2.601-10.435c-10.799-17.969-4.966-41.374,13.003-52.172c8.706-5.231,18.925-6.759,28.779-4.304
	c9.854,2.456,18.161,8.602,23.393,17.307c10.799,17.969,4.966,41.374-13.003,52.172c-3.599,2.164-4.764,6.834-2.601,10.435
	c1.427,2.373,3.943,3.688,6.525,3.688c1.333,0,2.684-0.351,3.909-1.088c25.157-15.119,33.323-47.885,18.204-73.041
	C403.099,106.369,370.333,98.202,345.177,113.321z"/>
<g>
</g>
<g>
</g>
<g>
</g>
<g>
</g>
<g>
</g>
<g>
</g>
<g>
</g>
<g>
</g>
<g>
</g>
<g>
</g>
<g>
</g>
<g>
</g>
<g>
</g>
<g>
</g>
<g>
</g>
</svg>
